C:\Users\israe\Dropbox\PhDWork\ExperimentalData\subject14\145\P14S145W05_filtered35.mot
nRows=10
nColumns=28

name C:\Users\israe\Dropbox\PhDWork\ExperimentalData\subject14\145\P14S145W05_filtered35.mot
datacolumns 28
datarows 10
range 0.5220000000 0.5310000000
endheader
time	ground_force_1_vx	ground_force_1_vy	ground_force_1_vz	ground_force_1_px	ground_force_1_py	ground_force_1_pz	ground_moment_1_mx	ground_moment_1_my	ground_moment_1_mz	ground_force_2_vx	ground_force_2_vy	ground_force_2_vz	ground_force_2_px	ground_force_2_py	ground_force_2_pz	ground_moment_2_mx	ground_moment_2_my	ground_moment_2_mz	ground_force_3_vx	ground_force_3_vy	ground_force_3_vz	ground_force_3_px	ground_force_3_py	ground_force_3_pz	ground_moment_3_mx	ground_moment_3_my	ground_moment_3_mz
        0.5220000000	       13.1272684683	      438.0433755833	       16.7400004169	        0.1988394961	        0.0000558755	       -0.3004071324	       -7.2118932220	        3.9987781928	        4.4411158208	       -0.0000000027	        0.0000000000	       -0.0000000062	        0.2029003516	       -0.0000795827	        0.4543649445	       -0.0000000014	        0.0000000006	       -0.0000000046	       -0.0000000000	        0.0000000000	        0.0000000000	        0.2076431971	        0.0000770316	        1.3583900146	        0.0000000000	        0.0000000000	       -0.0000000000	
        0.5230000000	       13.0320031844	      443.9166540284	       17.7219142087	        0.1988394961	        0.0000558755	       -0.3004071324	       -7.4147830801	        4.0434089328	        4.5338787841	       -0.0000000033	        0.0000000000	       -0.0000000075	        0.2029003516	       -0.0000795827	        0.4543649445	       -0.0000000017	        0.0000000008	       -0.0000000058	       -0.0000000000	        0.0000000000	        0.0000000000	        0.2076431971	        0.0000770316	        1.3583900146	        0.0000000000	        0.0000000000	       -0.0000000000	
        0.5240000000	       12.9425163844	      449.8275629437	       18.7366186843	        0.1988394961	        0.0000558755	       -0.3004071324	       -7.6222718430	        4.0876583801	        4.6272277815	       -0.0000000038	        0.0000000000	       -0.0000000086	        0.2029003516	       -0.0000795827	        0.4543649445	       -0.0000000020	        0.0000000010	       -0.0000000070	       -0.0000000000	        0.0000000000	        0.0000000000	        0.2076431971	        0.0000770316	        1.3583900146	        0.0000000000	        0.0000000000	       -0.0000000000	
        0.5250000000	       12.8579888574	      455.7730821134	       19.7824637085	        0.1988394961	        0.0000558755	       -0.3004071324	       -7.8339869059	        4.1318851253	        4.7203601989	       -0.0000000043	        0.0000000000	       -0.0000000095	        0.2029003516	       -0.0000795827	        0.4543649445	       -0.0000000023	        0.0000000011	       -0.0000000081	       -0.0000000000	        0.0000000000	        0.0000000000	        0.2076431971	        0.0000770316	        1.3583900146	        0.0000000000	        0.0000000000	       -0.0000000000	
        0.5260000000	       12.7787131044	      461.7446502962	       20.8564397525	        0.1988394961	        0.0000558755	       -0.3004071324	       -8.0491603708	        4.1762384490	        4.8126989495	       -0.0000000045	        0.0000000000	       -0.0000000099	        0.2029003516	       -0.0000795827	        0.4543649445	       -0.0000000025	        0.0000000013	       -0.0000000090	       -0.0000000000	        0.0000000000	        0.0000000000	        0.2076431971	        0.0000770316	        1.3583900146	        0.0000000000	        0.0000000000	       -0.0000000000	
        0.5270000000	       12.7058635391	      467.7322665225	       21.9553831556	        0.1988394961	        0.0000558755	       -0.3004071324	       -8.2668819457	        4.2206431478	        4.9041235324	       -0.0000000045	        0.0000000000	       -0.0000000096	        0.2029003516	       -0.0000795827	        0.4543649445	       -0.0000000026	        0.0000000014	       -0.0000000094	       -0.0000000000	        0.0000000000	        0.0000000000	        0.2076431971	        0.0000770316	        1.3583900146	        0.0000000000	        0.0000000000	       -0.0000000000	
        0.5280000000	       12.6411382401	      473.7288283116	       23.0770515287	        0.1988394961	        0.0000558755	       -0.3004071324	       -8.4863019457	        4.2648649086	        4.9949252757	       -0.0000000040	        0.0000000000	       -0.0000000083	        0.2029003516	       -0.0000795827	        0.4543649445	       -0.0000000024	        0.0000000014	       -0.0000000093	       -0.0000000000	        0.0000000000	        0.0000000000	        0.2076431971	        0.0000770316	        1.3583900146	        0.0000000000	        0.0000000000	       -0.0000000000	
        0.5290000000	       12.5863933304	      479.7309160620	       24.2205389807	        0.1988394961	        0.0000558755	       -0.3004071324	       -8.7067411485	        4.3085825602	        5.0855127081	       -0.0000000029	        0.0000000000	       -0.0000000056	        0.2029003516	       -0.0000795827	        0.4543649445	       -0.0000000020	        0.0000000013	       -0.0000000081	       -0.0000000000	        0.0000000000	        0.0000000000	        0.2076431971	        0.0000770316	        1.3583900146	        0.0000000000	        0.0000000000	       -0.0000000000	
        0.5300000000	       12.5432273880	      485.7383640575	       25.3859462628	        0.1988394961	        0.0000558755	       -0.3004071324	       -8.9278381579	        4.3513943660	        5.1760951132	       -0.0000000010	        0.0000000000	       -0.0000000011	        0.2029003516	       -0.0000795827	        0.4543649445	       -0.0000000012	        0.0000000011	       -0.0000000057	       -0.0000000000	        0.0000000000	        0.0000000000	        0.2076431971	        0.0000770316	        1.3583900146	        0.0000000000	        0.0000000000	       -0.0000000000	
        0.5310000000	       12.5129553996	      491.7536625415	       26.5741440913	        0.1988394961	        0.0000558755	       -0.3004071324	       -9.1495770941	        4.3928612253	        5.2666462002	        0.0000000019	        0.0000000000	        0.0000000057	        0.2029003516	       -0.0000795827	        0.4543649445	        0.0000000002	        0.0000000006	       -0.0000000016	       -0.0000000000	        0.0000000000	        0.0000000000	        0.2076431971	        0.0000770316	        1.3583900146	        0.0000000000	        0.0000000000	       -0.0000000000	
